# WaveFront *.obj file (generated by CINEMA 4D)

v -10000 -10000 -10000
v -10000 0 -10000
v 10000 -10000 -10000
v 10000 0 -10000
v 10000 -10000 10000
v 10000 0 10000
v -10000 -10000 10000
v -10000 0 10000
# 8 vertices

vn 0 0 -1
vn 1 0 0
vn 0 0 1
vn -1 0 0
vn 0 1 0
vn 0 -1 0
# 6 normals

vt 0.87695491313934 0.78221869468689 0
vt 0.87696468830109 0.87402230501175 0
vt 0.99903947114944 0.87401914596558 0
vt 0.99903947114944 0.78221547603607 0
vt 0.87501466274261 0.87403601408005 0
vt 0.87500512599945 0.00096833705902 0
vt 0.000973445829 0.0009685754776 0
vt 0.0009853518568 0.8740262389183 0
vt 0.08281868696213 0.89843130111694 0
vt 0.08281868696213 0.92343121767044 0
vt 0.10781866312027 0.92343121767044 0
vt 0.10781866312027 0.89843130111694 0
# 12 texture coordinates

o tile06
usemtl tile06
f 1/1/1 2/2/1 4/3/1 3/4/1
f 3/4/2 4/3/2 6/3/2 5/4/2
f 5/4/3 6/3/3 8/2/3 7/1/3
f 1/4/4 7/1/4 8/2/4 2/3/4
f 2/5/5 8/6/5 6/7/5 4/8/5
f 7/9/6 1/10/6 3/11/6 5/12/6

