# WaveFront *.obj file (generated by CINEMA 4D)

v 311.2215576171875 4325.89013671875 3402.78173828125
v 2913.85302734375 0 3402.78173828125
v 3320.1025390625 0 3402.78173828125
v 3320.1025390625 0 3808.197021484375
v 2913.85302734375 0 3808.197021484375
v 7197.830078125 0 3402.78173828125
v 7604.07958984375 0 3402.78173828125
v 7604.07958984375 0 3808.197021484375
v 7197.830078125 0 3808.197021484375
v 0 0 3402.78173828125
v 406.24951171875 0 3402.78173828125
v 406.24951171875 0 3808.197021484375
v 0 0 3808.197021484375
v 0 0 0
v 406.24951171875 0 0
v 406.24951171875 0 405.41525268554688
v 0 0 405.41525268554688
v 311.2215576171875 603.36016845703125 3402.78173828125
v 311.2215576171875 4325.89013671875 405.41525268554688
v 311.2215576171875 603.36016845703125 405.41525268554688
v 95.02796173095703 4325.89013671875 3402.78173828125
v 95.02796173095703 603.36016845703125 3402.78173828125
v 95.02796173095703 4325.89013671875 405.41525268554688
v 95.02796173095703 603.36016845703125 405.41525268554688
v 3320.1025390625 1134.6513671875 3523.113037109375
v 3320.1025390625 3475.97314453125 3523.113037109375
v 3320.1025390625 1504.7847900390625 3523.113037109375
v 3320.1025390625 3475.97314453125 3764.431640625
v 3320.1025390625 1046.855224609375 3764.431640625
v 2913.85302734375 1504.7847900390625 3523.113037109375
v 2913.85302734375 3475.97314453125 3523.113037109375
v 2913.85302734375 3475.97314453125 3764.431640625
v 2913.85302734375 1046.855224609375 3764.431640625
v 7197.830078125 1046.855224609375 3764.431640625
v 406.24951171875 1046.855224609375 3523.113037109375
v 406.24951171875 3475.97314453125 3764.431640625
v 406.24951171875 1046.855224609375 3764.431640625
v 2812.955078125 1134.6513671875 2099.363525390625
v 2812.955078125 1504.7847900390625 2099.363525390625
v 7095.8310546875 1134.6513671875 2099.363525390625
v 7095.8310546875 1504.7847900390625 2099.363525390625
v 7095.8310546875 1504.7847900390625 3523.113037109375
v 7095.8310546875 1134.6513671875 3523.113037109375
v 2812.955078125 1504.7847900390625 3523.113037109375
v 2812.955078125 1134.6513671875 3523.113037109375
v 2913.85302734375 1134.6513671875 3523.113037109375
v 7197.830078125 2513.195556640625 3523.113037109375
v 7197.830078125 3475.97314453125 3764.431640625
v 7197.830078125 3475.97314453125 3523.113037109375
v 7197.830078125 1046.855224609375 3523.113037109375
v 406.24951171875 3475.97314453125 3523.113037109375
v 2913.85302734375 1504.7847900390625 3402.78173828125
v 3320.1025390625 1134.6513671875 3402.78173828125
v 2913.85302734375 1134.6513671875 3402.78173828125
v 3320.1025390625 1504.7847900390625 3402.78173828125
v 3320.1025390625 4594.916015625 3402.78173828125
v 7604.07958984375 4594.916015625 3402.78173828125
v 7604.07958984375 4359.35107421875 3808.197021484375
v 33.48297500610352 4594.916015625 3402.78173828125
v 406.24951171875 4410.6962890625 0
v 406.24951171875 4350.953125 3794.6962890625
v 406.24951171875 4216.1865234375 3578.03173828125
v 7197.830078125 4216.1865234375 3578.03173828125
v 406.24951171875 4216.1865234375 312.71322631835938
v 7779.7802734375 5161.5947265625 1945.37255859375
v -142.71968078613281 5161.5947265625 1945.37255859375
v 7779.7802734375 5034.93408203125 2761.7021484375
v -142.71968078613281 5034.93408203125 2761.7021484375
v 7779.7802734375 4688.890625 3359.296875
v -142.71968078613281 4688.890625 3359.296875
v 7779.7802734375 4216.1865234375 3578.03173828125
v -142.71968078613281 4216.1865234375 3578.03173828125
v 7779.7802734375 4216.1865234375 312.71322631835938
v -142.71968078613281 4216.1865234375 312.71322631835938
v 7779.7802734375 4688.890625 531.4481201171875
v -142.71968078613281 4688.890625 531.4481201171875
v 7779.7802734375 5034.93408203125 1129.0428466796875
v -142.71968078613281 5034.93408203125 1129.0428466796875
v 7779.7802734375 5709.435546875 1945.37255859375
v -142.71968078613281 5709.435546875 1945.37255859375
v 7779.7802734375 5561.13623046875 2901.1630859375
v -142.71968078613281 5561.13623046875 2901.1630859375
v 7779.7802734375 5097.59765625 3701.664794921875
v -142.71968078613281 5097.59765625 3701.664794921875
v 7779.7802734375 4472.89111328125 3990.73583984375
v -142.71968078613281 4472.89111328125 3990.73583984375
v 7779.7802734375 4472.89111328125 -99.99076080322266
v -142.71968078613281 4472.89111328125 -99.99076080322266
v 7779.7802734375 5097.59765625 189.08024597167969
v -142.71968078613281 5097.59765625 189.08024597167969
v 7779.7802734375 5561.13623046875 989.58203125
v -142.71968078613281 5561.13623046875 989.58203125
v 2913.85302734375 4216.1865234375 3578.03173828125
v 3320.1025390625 4216.1865234375 3578.03173828125
v -0.00000000000036 4216.1865234375 3578.03173828125
v 7604.07958984375 4216.1865234375 3578.03173828125
v 0 4216.1865234375 312.71322631835938
v 2913.85302734375 4557.0546875 3420.301513671875
v 3320.1025390625 4350.953125 3794.6962890625
v 2913.85302734375 4359.35107421875 3808.197021484375
v 372.76654052734375 4594.916015625 3402.78173828125
v 7197.830078125 4557.0546875 3420.301513671875
v 7197.830078125 4350.953125 3794.6962890625
v 0.00000000000036 4359.35107421875 3808.197021484375
v 354.95443725585938 4416.5234375 405.41525268554688
v 51.29508209228516 4416.5234375 405.41525268554688
v 0.00000000000036 4410.6962890625 0
# 107 vertices

vn 1 0 0
vn -1 0 0
vn 0 1 0
vn 0 -1 0
vn 0 0 -1
vn -0.02181442826986 0.00286787096411 -0.99975794553757
vn 0 0 0
vn 0.01664170250297 0.00155084615108 0.99986028671265
vn -0.02172645740211 0.00192089600023 -0.9997621178627
vn -0.01660976186395 0.00155170494691 0.99986082315445
vn 0.99962830543518 0.00201713014394 -0.02718740515411
vn 0.99865365028381 0.00179469247814 -0.05184277519584
vn 0.99916338920593 0.00302597670816 -0.04078490287066
vn 0.99569827318192 0.00481601990759 -0.0925294905901
vn 0.01664170064032 0.00155084615108 0.99986028671265
vn -0.99431526660919 -0.00214705406688 -0.10645419359207
vn -0.99857783317566 -0.00107505591586 -0.05330290272832
vn -1 0 0
vn 0.95778679847717 -0.01522808894515 0.28707593679428
vn 0 0 1
vn -1 0 -0
vn -0.97061109542847 0.00529001140967 0.24059534072876
vn 0.01669780351222 -0.98469036817551 -0.17351092398167
vn -0.01149284467101 -0.98475044965744 -0.17359289526939
vn 0 0.41995012760162 0.90754717588425
vn 0 0.98817592859268 0.15332432091236
vn 0 0.41995021700859 -0.9075471162796
vn 0 0.86538392305374 -0.5011094212532
vn 0 0.86538392305374 0.5011094212532
vn 0 0.98817592859268 -0.15332429111004
vn 0.0000000139299 -0.41995140910149 -0.9075465798378
vn 0.00000002785981 -0.41995060443878 -0.90754693746567
vn 0.0000000092866 -0.41995114088058 -0.90754669904709
vn 0.00000001917972 -0.41995048522949 -0.90754699707031
vn 0.00000001823257 -0.41995066404343 -0.90754693746567
vn 0.00000002597925 -0.41995060443878 -0.90754699707031
vn -0.00000001948358 -0.41995072364807 -0.90754693746567
vn -0.00000003896717 -0.41995078325272 -0.90754687786102
vn 0.00000000006788 -0.41995090246201 -0.90754681825638
vn 0.0000000223173 -0.41995140910149 -0.9075465798378
vn 0.00000006503322 -0.41995078325272 -0.90754687786102
vn 0 -0.98817592859268 -0.15332442522049
vn -0.00000000231188 -0.4199503660202 0.90754705667496
vn -0.00000000462376 -0.41995021700859 0.9075471162796
vn 0.00000016379907 -0.41995042562485 0.90754705667496
vn 0.00000032759814 -0.41995030641556 0.9075471162796
vn 0 -0.86538392305374 0.5011094212532
vn 0 -0.8653838634491 -0.50110954046249
vn 0 -0.98817592859268 0.15332441031933
vn -0.00000030036946 -0.84913837909698 0.52817040681839
vn -0.00000015584784 -0.84913861751556 0.52817010879517
vn 0.00000012640331 -0.84913849830627 0.52817022800446
vn 0.00000043141301 -0.84913837909698 0.52817040681839
vn 0.00000022769237 -0.84913849830627 0.52817022800446
vn 0.00000003077734 -0.84913820028305 0.52817070484161
vn 0 -0.8491382598877 0.52817058563232
vn 0.00000001674283 -0.84913837909698 0.52817040681839
vn -0.00000000701536 -0.8491382598877 0.52817058563232
vn 0.00000002617034 -0.84913831949234 0.52817052602768
vn 0.00000000847817 -0.84913843870163 0.52817034721375
vn -1 -0 -0
vn -1 -0 0
vn 0.00000017615298 -0.8491387963295 -0.5281697511673
vn 0.00000035230599 -0.84913849830627 -0.52817022800446
vn -0.00000000399168 -0.8491387963295 -0.5281697511673
vn -0.00000000798336 -0.84913855791092 -0.52817016839981
# 66 normals

vt 0.83644503355026 0.89373457431793 0
vt 0.83644503355026 0.91873449087143 0
vt 0.8614450097084 0.91873449087143 0
vt 0.8614450097084 0.89373457431793 0
vt 0.89373451471329 0.89547061920166 0
vt 0.89373451471329 0.92047053575516 0
vt 0.91873449087143 0.92047053575516 0
vt 0.91873449087143 0.89547061920166 0
vt 0.51249998807907 0.48750007152557 0
vt 0.76700323820114 0.89026248455048 0
vt 0.76700323820114 0.91526240110397 0
vt 0.79200321435928 0.91526240110397 0
vt 0.79200321435928 0.89026248455048 0
vt 0.95276004076004 0.8919985294342 0
vt 0.95276004076004 0.9169984459877 0
vt 0.97776001691818 0.9169984459877 0
vt 0.97776001691818 0.8919985294342 0
# 17 texture coordinates

o busstop03
usemtl texture
f 18/1/1 20/2/1 19/3/1 1/4/1
f 24/1/2 22/2/2 21/3/2 23/4/2
f 23/1/3 21/2/3 1/3/3 19/4/3
f 20/1/4 18/2/4 22/3/4 24/4/4
f 53/5/5 3/6/5 2/7/5 54/8/5
f 56/5/6 55/6/6 52/7/6 98/8/6
f 26/5/1 27/6/1 55/7/1 56/8/1
f 53/5/1 25/6/1 3/7/1
f 4/5/1 3/6/1 25/7/1 29/8/1
f 99/5/1 28/6/1 94/7/1
f 26/5/1 56/6/1 94/7/1 28/8/1
f 4/5/1 29/6/1 28/7/1 99/8/1
f 100/5/8 5/6/8 4/7/8 99/8/8
f 54/5/2 2/6/2 46/7/2
f 31/5/2 98/6/2 52/7/2 30/8/2
f 33/5/2 46/6/2 2/7/2 5/8/2
f 93/5/2 98/6/2 31/7/2 32/8/2
f 93/5/2 32/6/2 100/7/2
f 32/5/2 33/6/2 5/7/2 100/8/2
f 5/5/4 2/6/4 3/7/4 4/8/4
f 57/5/9 7/6/9 6/7/9 102/8/9
f 58/5/1 8/6/1 96/7/1
f 7/5/1 57/6/1 96/7/1 8/8/1
f 103/5/10 9/6/10 8/7/10 58/8/10
f 102/5/2 6/6/2 50/7/2 47/8/2
f 34/5/2 50/6/2 6/7/2 9/8/2
f 102/5/2 47/6/2 49/7/2
f 48/5/2 34/6/2 9/7/2 103/8/2
f 63/5/2 102/6/2 49/7/2 48/8/2
f 63/5/2 48/6/2 103/7/2
f 9/5/4 6/6/4 7/7/4 8/8/4
f 10/5/5 22/6/5 18/7/5 11/8/5
f 59/5/5 21/6/5 22/7/5 10/8/5
f 21/5/5 59/6/5 101/7/5 1/8/5
f 18/5/5 1/6/5 101/7/5 11/8/5
f 12/5/1 37/6/1 36/7/11 61/8/1
f 35/5/12 37/6/1 12/7/1 11/8/12
f 61/5/1 36/6/11 62/7/13
f 51/5/14 101/6/14 62/7/13 36/8/11
f 51/5/14 35/6/12 11/7/12 101/8/14
f 104/5/15 13/6/15 12/7/15 61/8/15
f 59/5/16 10/6/16 13/7/17 95/8/17
f 13/5/17 104/6/18 95/7/17
f 13/5/4 10/6/4 11/7/4 12/8/4
f 60/5/5 15/6/5 14/7/5 107/8/5
f 105/5/19 16/6/19 15/7/19 64/8/19
f 15/5/1 60/6/1 64/7/1
f 106/5/20 17/6/20 24/7/20 23/8/20
f 24/5/20 17/6/20 16/7/20 20/8/20
f 106/5/20 23/6/20 19/7/20 105/8/20
f 105/5/20 19/6/20 20/7/20 16/8/20
f 107/5/21 14/6/21 97/7/21
f 17/5/22 106/6/22 97/7/22 14/8/22
f 17/5/4 14/6/4 15/7/4 16/8/4
f 38/10/5 39/11/5 41/12/5 40/13/5
f 43/10/1 40/11/1 41/12/1 42/13/1
f 44/10/2 39/11/2 38/12/2 45/13/2
f 42/1/3 41/2/3 55/3/3 27/4/3
f 39/1/3 44/2/3 30/3/3 52/4/3
f 55/1/3 41/2/3 39/3/3 52/4/3
f 54/5/4 46/6/4 45/7/4 38/8/4
f 38/5/4 40/6/4 53/7/4 54/8/4
f 43/5/4 25/6/4 53/7/4 40/8/4
f 44/1/5 45/2/5 35/3/5 51/4/5
f 47/1/5 50/2/5 43/3/5 42/4/5
f 45/5/5 46/6/5 35/7/5
f 25/1/5 43/2/5 50/3/5
f 51/1/5 31/2/5 30/3/5 44/4/5
f 26/1/5 49/2/5 47/3/5 42/4/5
f 42/1/5 27/2/5 26/3/5
f 37/1/20 33/2/20 32/3/20 36/4/20
f 29/1/20 34/2/20 48/3/20 28/4/20
f 49/1/3 26/2/3 28/3/3 48/4/3
f 31/1/3 51/2/3 36/3/3 32/4/3
f 35/1/23 46/2/23 33/3/23 37/4/23
f 25/1/24 50/2/24 34/3/24 29/4/24
f 83/5/25 84/6/25 86/7/25 85/8/25
f 79/5/26 80/6/26 82/7/26 81/8/26
f 87/14/27 88/15/27 90/16/27 89/17/27
f 89/5/28 90/6/28 92/7/28 91/8/28
f 81/14/29 82/15/29 84/16/29 83/17/29
f 91/14/30 92/15/30 80/16/30 79/17/30
f 98/5/31 93/6/32 62/7/32 101/8/33
f 102/5/34 63/6/35 94/7/35 56/8/36
f 59/5/37 95/6/38 72/7/38 70/8/39
f 69/5/40 71/6/41 96/7/41 57/8/40
f 70/5/39 69/6/40 57/7/40 102/8/34
f 56/5/36 98/6/31 101/7/33 70/8/39
f 59/5/37 70/6/39 101/7/33
f 102/5/34 56/6/36 70/7/39
f 67/5/42 68/6/42 66/7/42 65/8/42
f 105/14/43 64/15/44 73/16/44 75/17/43
f 76/14/45 74/15/46 97/16/46 106/17/45
f 105/14/43 75/15/43 76/16/45 106/17/45
f 77/5/47 78/6/47 76/7/47 75/8/47
f 69/14/48 70/15/48 68/16/48 67/17/48
f 65/14/49 66/15/49 78/16/49 77/17/49
f 69/5/1 83/6/1 85/7/1 71/8/1
f 96/5/50 71/6/50 85/7/51 58/8/51
f 86/5/52 72/6/53 95/7/53 104/8/54
f 99/5/55 94/6/56 63/7/56 103/8/57
f 93/5/58 100/6/59 61/7/60 62/8/58
f 86/5/52 104/6/54 61/7/60 100/8/59
f 58/5/51 85/6/51 86/7/52 103/8/57
f 86/5/52 100/6/59 99/7/55 103/8/57
f 72/5/2 86/6/2 84/7/61 70/8/61
f 65/5/1 79/6/1 81/7/1 67/8/1
f 68/5/61 82/6/61 80/7/62 66/8/62
f 73/14/1 87/15/1 89/16/1 75/17/1
f 76/14/2 90/15/2 88/16/2 74/17/2
f 107/14/63 97/15/64 74/16/64 88/17/63
f 88/14/63 87/15/65 60/16/65 107/17/63
f 73/14/66 64/15/66 60/16/65 87/17/65
f 75/5/1 89/6/1 91/7/1 77/8/1
f 78/5/62 92/6/62 90/7/2 76/8/2
f 67/14/1 81/15/1 83/16/1 69/17/1
f 70/14/61 84/15/61 82/16/61 68/17/61
f 77/14/1 91/15/1 79/16/1 65/17/1
f 66/14/62 80/15/62 92/16/62 78/17/62

