# WaveFront *.obj file (generated by CINEMA 4D)

v -405.1610107421875 -0.00003239802027 -495.0089111328125
v -537.23828125 1592.353515625 -562.5101318359375
v 469.6231689453125 0.00002864777343 -495.0089111328125
v 508.899658203125 1592.353515625 -562.5101318359375
v 469.6231689453125 0.0000325484325 495.0089111328125
v 508.899658203125 1592.353515625 562.5101318359375
v -405.1610107421875 -0.0000284973612 495.0089111328125
v -537.23834228515625 1592.353515625 562.5101318359375
v -580.8135986328125 1592.353515625 529.93450927734375
v -580.8135986328125 1835.728759765625 529.93450927734375
v -580.8135986328125 1835.728759765625 -529.93450927734375
v -580.8135986328125 1592.353515625 -529.93450927734375
v -520.7584228515625 1592.353515625 -589.98974609375
v -520.7584228515625 1835.728759765625 -589.98974609375
v 499.67190551757812 1835.728759765625 -589.98974609375
v 499.67190551757812 1592.353515625 -589.98974609375
v -530.01568603515625 1592.353515625 557.95538330078125
v -530.01568603515625 1592.353515625 -557.95538330078125
v 559.72711181640625 1592.353515625 -529.93450927734375
v 559.72711181640625 1835.728759765625 -529.93450927734375
v 559.72711181640625 1835.728759765625 529.93450927734375
v 559.72711181640625 1592.353515625 529.93450927734375
v 506.89846801757812 1592.353515625 -561.42816162109375
v 499.67190551757812 1592.353515625 589.98974609375
v 499.67190551757812 1835.728759765625 589.98974609375
v -520.7584228515625 1835.728759765625 589.98974609375
v -520.7584228515625 1592.353515625 589.98974609375
v 506.89846801757812 1592.353515625 561.42816162109375
v 592.61456298828125 308.57669067382812 -625.888916015625
v 592.61456298828125 308.57669067382812 -510.68130493164062
v 620.253173828125 205.42796325683594 -625.888916015625
v 620.253173828125 205.42796325683594 -510.68130493164062
v 592.61456298828125 102.27925109863281 -625.888916015625
v 592.61456298828125 102.27925109863281 -510.68130493164062
v 517.1044921875 26.7691478729248 -625.888916015625
v 517.1044921875 26.7691478729248 -510.68130493164062
v 413.95574951171875 -0.86946839094162 -625.88885498046875
v 413.95578002929688 -0.86946839094162 -510.6812744140625
v 310.80703735351562 26.76914596557617 -625.88885498046875
v 310.80703735351562 26.76914596557617 -510.6812744140625
v 235.29695129394531 102.27924346923828 -625.88885498046875
v 235.29695129394531 102.27924346923828 -510.6812744140625
v 207.6583251953125 205.42796325683594 -625.88885498046875
v 207.65834045410156 205.42796325683594 -510.6812744140625
v 235.29693603515625 308.57669067382812 -625.88885498046875
v 235.29695129394531 308.57669067382812 -510.6812744140625
v 310.80703735351562 384.0867919921875 -625.88885498046875
v 310.80703735351562 384.0867919921875 -510.6812744140625
v 413.95574951171875 411.72540283203125 -625.88885498046875
v 413.95578002929688 411.72540283203125 -510.6812744140625
v 517.1044921875 384.0867919921875 -625.888916015625
v 517.1044921875 384.0867919921875 -510.68130493164062
v 592.6146240234375 308.57669067382812 515.31951904296875
v 592.61468505859375 308.57669067382812 630.527099609375
v 620.2532958984375 205.42796325683594 515.31951904296875
v 620.2532958984375 205.42796325683594 630.527099609375
v 592.6146240234375 102.27925109863281 515.31951904296875
v 592.61468505859375 102.27925109863281 630.527099609375
v 517.10455322265625 26.7691478729248 515.31951904296875
v 517.10455322265625 26.7691478729248 630.527099609375
v 413.95584106445312 -0.86946839094162 515.31951904296875
v 413.95584106445312 -0.86946839094162 630.527099609375
v 310.80712890625 26.76914596557617 515.31951904296875
v 310.80712890625 26.76914596557617 630.527099609375
v 235.29702758789062 102.27924346923828 515.31951904296875
v 235.29702758789062 102.27924346923828 630.527099609375
v 207.65840148925781 205.42796325683594 515.31951904296875
v 207.65841674804688 205.42796325683594 630.527099609375
v 235.29702758789062 308.57669067382812 515.31951904296875
v 235.29702758789062 308.57669067382812 630.527099609375
v 310.80712890625 384.0867919921875 515.31951904296875
v 310.80712890625 384.0867919921875 630.527099609375
v 413.95584106445312 411.72540283203125 515.31951904296875
v 413.95584106445312 411.72540283203125 630.527099609375
v 517.10455322265625 384.0867919921875 515.31951904296875
v 517.10455322265625 384.0867919921875 630.527099609375
# 76 vertices

vn 0.00000000147777 -0.04235281050205 -0.99910271167755
vn 0.999695956707 -0.02465819753706 0.00000000004858
vn 0.00000000147777 -0.04235280677676 0.99910271167755
vn -0.99657773971558 -0.08266085386276 0.00000000016284
vn 0 1 0
vn 0.00000006978383 -1 0.00000000393999
vn 0 -1 0
vn 0 0 -1
vn 1 0 0
vn 0 0 1
vn -1 0 0
vn -0.70710676908493 0 -0.70710676908493
vn 0.70710676908493 0 -0.70710676908493
vn 0.70710676908493 0 0.70710676908493
vn -0.70710676908493 0 0.70710676908493
vn 0 0 0
vn -0.70710670948029 -0.70710682868958 0.00000007316678
vn 0.9659258723259 -0.25881895422935 -0.00000020590541
vn -0.9659258723259 -0.25881895422935 0
vn -0.9659258723259 0.25881892442703 0
vn 0.70710676908493 -0.70710676908493 -0.00000014633351
vn -0.70710670948029 0.70710682868958 0.00000007267253
vn -0.25881892442703 0.9659258723259 0.00000007522926
vn 0.25881907343864 -0.96592581272125 0
vn 0.25881892442703 0.9659258723259 -0.0000000535618
vn 0.70710676908493 0.70710676908493 -0.00000014534503
vn -0.258819013834 -0.96592581272125 0.00000002422417
vn 0.9659258723259 0.25881895422935 -0.00000019989535
vn -0.00000005073488 0.00000008787538 -1
vn -0.00000002442288 0.00000011934854 -1
vn -0.0000001559829 0.00000008787538 -1
vn -0.00000003663432 0.00000017902281 -1
vn -0.000000039468 -0.00000004720973 -1
vn -0.00000013156003 -0.00000003147316 -1
vn -0.00000031574407 0 -1
vn -0.70710670948029 -0.70710682868958 0.00000007267253
vn 0.96592581272125 -0.25881916284561 0
vn -0.96592581272125 -0.25881907343864 0.00000009994771
vn -0.96592581272125 0.25881907343864 0.00000009689671
vn 0.70710676908493 -0.70710676908493 -0.00000014534498
vn -0.70710682868958 0.70710676908493 0.00000014583934
vn -0.25881895422935 0.9659258723259 0.0000000267809
vn 0.25881904363632 -0.96592581272125 -0.00000005356177
vn 0.25881892442703 0.9659258723259 -0.00000004844835
vn 0.70710676908493 0.70710676908493 -0.00000014633355
vn -0.25881907343864 -0.96592581272125 0
vn 0.96592581272125 0.25881913304329 0
vn -0.00000010852004 -0.00000002253378 -1
vn -0.0000001399932 0.00000026312011 -1
vn -0.00000020998979 0.00000039468017 -1
vn -0.00000018393089 -0.00000027060864 -1
vn -0.00000012262061 -0.00000018040576 -1
vn -0.00000023114062 0.00000086262901 -1
vn -0.00000023114065 -0.00000054688462 -1
# 54 normals

vt 0.29320272803307 0.29417204856873 0
vt 0.27048021554947 0.56811988353729 0
vt 0.45045730471611 0.56811988353729 0
vt 0.4437001645565 0.29417204856873 0
vt 0.47554206848145 0.29417204856873 0
vt 0.46392920613289 0.56811988353729 0
vt 0.65747714042664 0.56811988353729 0
vt 0.64586424827576 0.29417216777802 0
vt 0.67770618200302 0.29417216777802 0
vt 0.67094910144806 0.56811988353729 0
vt 0.85092616081238 0.56811988353729 0
vt 0.8282036781311 0.29417204856873 0
vt 0.0763209015131 0.29417204856873 0
vt 0.06470802426338 0.56811988353729 0
vt 0.25825595855713 0.56811988353729 0
vt 0.24664309620857 0.29417204856873 0
vt 0.26124531030655 0.59293562173843 0
vt 0.26124531030655 0.79524320363998 0
vt 0.4635528922081 0.79524320363998 0
vt 0.4635528922081 0.59293562173843 0
vt 0.7629052400589 0.88811528682709 0
vt 0.7629052400589 0.91811525821686 0
vt 0.79290521144867 0.91811525821686 0
vt 0.79290521144867 0.88811528682709 0
vt 0.70046162605286 0.88596415519714 0
vt 0.70046162605286 0.92502665519714 0
vt 0.73952412605286 0.92502665519714 0
vt 0.73952412605286 0.88596415519714 0
vt 0.2733154296875 0.56811988353729 0
vt 0.2733154296875 0.59293562173843 0
vt 0.44886976480484 0.59293562173843 0
vt 0.44886976480484 0.56811988353729 0
vt 0.46953350305557 0.56811988353729 0
vt 0.46953350305557 0.59293562173843 0
vt 0.65187287330627 0.59293562173843 0
vt 0.65187287330627 0.56811988353729 0
vt 0.67253661155701 0.56811988353729 0
vt 0.67253661155701 0.59293562173843 0
vt 0.84809094667435 0.59293562173843 0
vt 0.84809094667435 0.56811988353729 0
vt 0.07031231373549 0.56811988353729 0
vt 0.07031231373549 0.59293562173843 0
vt 0.25265169143677 0.59293562173843 0
vt 0.25265169143677 0.56811988353729 0
vt 0.05322908610106 0.56811988353729 0
vt 0.05322908610106 0.59293562173843 0
vt 1 0 0
vt 0.70128214359283 0.89159536361694 0
vt 0.70128214359283 0.92159533500671 0
vt 0.7312821149826 0.92159533500671 0
vt 0.7312821149826 0.89159536361694 0
vt 0.99241757392883 0.79627919197083 0
vt 0.98367178440094 0.76363968849182 0
vt 0.95977807044983 0.73974597454071 0
vt 0.95977807044983 0.85281246900558 0
vt 0.98367178440094 0.82891869544983 0
vt 0.9375 0.60825318098068 0
vt 0.92713856697083 0.73100018501282 0
vt 0.89449906349182 0.73974597454071 0
vt 0.87060523033142 0.76363968849182 0
vt 0.86185956001282 0.79627919197083 0
vt 0.87060523033142 0.82891869544983 0
vt 0.89449906349182 0.85281246900558 0
vt 0.92713856697083 0.86155819892883 0
vt 0.875 0.625 0
vt 0.4375 0.39174687862396 0
# 66 texture coordinates

o garbageCan01
usemtl garbageCan01
f 1/1/1 2/2/1 4/3/1 3/4/1
f 3/5/2 4/6/2 6/7/2 5/8/2
f 5/9/3 6/10/3 8/11/3 7/12/3
f 7/13/4 8/14/4 2/15/4 1/16/4
f 14/18/5 11/18/5 10/18/5 26/19/5 25/20/5 21/20/5 20/20/5 15/17/5
f 7/21/6 1/22/6 3/23/6 5/24/6
f 2/25/5 18/28/7 13/25/7 16/26/7 23/27/5 4/28/5
f 4/25/5 23/25/7 19/26/7 22/27/7 28/27/5 6/28/5
f 6/25/5 28/25/7 24/26/7 27/27/7 17/27/5 8/28/5
f 8/25/5 17/25/7 9/26/7 12/27/7 18/27/5 2/28/5
f 13/29/8 14/30/8 15/31/8 16/32/8
f 19/33/9 20/34/9 21/35/9 22/36/9
f 24/37/10 25/38/10 26/39/10 27/40/10
f 9/41/11 10/42/11 11/43/11 12/44/11
f 13/29/12 12/44/12 11/43/12 14/30/12
f 19/33/13 16/32/13 15/31/13 20/34/13
f 24/37/14 22/36/14 21/35/14 25/38/14
f 9/41/15 27/45/15 26/46/15 10/42/15
f 9/25/7 17/26/7 27/27/7
f 12/25/7 13/26/7 18/27/7
f 16/25/7 19/26/7 23/27/7
f 22/25/7 24/26/7 28/27/7
f 39/48/17 40/49/17 42/50/17 41/51/17
f 31/48/18 32/49/18 34/50/18 33/51/18
f 41/48/19 42/49/19 44/50/19 43/51/19
f 43/48/20 44/49/20 46/50/20 45/51/20
f 33/48/21 34/49/21 36/50/21 35/51/21
f 45/48/22 46/49/22 48/50/22 47/51/22
f 47/48/23 48/49/23 50/50/23 49/51/23
f 35/48/24 36/49/24 38/50/24 37/51/24
f 49/48/25 50/49/25 52/50/25 51/51/25
f 51/48/26 52/49/26 30/50/26 29/51/26
f 37/48/27 38/49/27 40/50/27 39/51/27
f 29/48/28 30/49/28 32/50/28 31/51/28
f 44/52/10 42/53/10 40/54/10 38/58/10 36/59/10 34/60/10 32/61/10 30/62/10 52/63/10 50/64/10 48/55/10 46/57/16
f 43/61/29 45/62/8 47/63/30 49/64/8 51/55/32 29/56/31 31/52/35 33/53/35 35/54/34 37/58/8 39/59/8 41/60/33
f 63/48/36 64/49/36 66/50/36 65/51/36
f 55/48/37 56/49/37 58/50/37 57/51/37
f 65/48/38 66/49/38 68/50/38 67/51/38
f 67/48/39 68/49/39 70/50/39 69/51/39
f 57/48/40 58/49/40 60/50/40 59/51/40
f 69/48/41 70/49/41 72/50/41 71/51/41
f 71/48/42 72/49/42 74/50/42 73/51/42
f 59/48/43 60/49/43 62/50/43 61/51/43
f 73/48/44 74/49/44 76/50/44 75/51/44
f 75/48/45 76/49/45 54/50/45 53/51/45
f 61/48/46 62/49/46 64/50/46 63/51/46
f 53/48/47 54/49/47 56/50/47 55/51/47
f 68/52/10 66/53/10 64/54/10 62/58/10 60/59/10 58/60/10 56/61/10 54/62/10 76/63/10 74/64/10 72/55/10 70/57/16
f 67/61/48 69/62/8 71/63/49 73/64/53 75/55/50 53/56/48 55/52/8 57/53/8 59/54/52 61/58/54 63/59/54 65/60/51

