# WaveFront *.obj file (generated by CINEMA 4D)

v -176.88629150390625 0 -190.970458984375
v -176.88629150390625 4198.349609375 -190.970458984375
v 176.88629150390625 0 -190.970458984375
v 176.88629150390625 4198.349609375 -190.970458984375
v 176.88629150390625 0 190.970458984375
v 176.88629150390625 4198.349609375 190.970458984375
v -176.88629150390625 0 190.970458984375
v -176.88629150390625 4198.349609375 190.970458984375
v -176.88629150390625 3261.699462890625 -190.970458984375
v 176.88629150390625 3261.699462890625 -190.970458984375
v 598.23193359375 3009.030029296875 -190.970458984375
v 598.23193359375 3009.030029296875 -360.19943237304688
v 598.23193359375 4451.01904296875 -360.19943237304688
v 598.23193359375 4451.01904296875 -190.970458984375
v -429.55575561523438 2840.353759765625 -190.970458984375
v -429.55575561523438 2840.353759765625 -360.19943237304688
v 429.55575561523438 2840.353759765625 -360.19943237304688
v 429.55575561523438 2840.353759765625 -190.970458984375
v -598.23193359375 4451.01904296875 -190.970458984375
v -598.23193359375 4451.01904296875 -360.19943237304688
v -598.23193359375 3009.030029296875 -360.19943237304688
v -598.23193359375 3009.030029296875 -190.970458984375
v 429.55575561523438 4619.6953125 -190.970458984375
v 429.55575561523438 4619.6953125 -360.19943237304688
v -429.55575561523438 4619.6953125 -360.19943237304688
v -429.55575561523438 4619.6953125 -190.970458984375
v -478.95986938476562 4500.42333984375 -190.970458984375
v 478.95986938476562 4500.42333984375 -190.970458984375
v 478.95986938476562 2959.6259765625 -190.970458984375
v -478.95986938476562 2959.6259765625 -190.970458984375
v 548.82781982421875 2889.7578125 -190.970458984375
v 548.82781982421875 2889.7578125 -360.19943237304688
v 548.82781982421875 4570.291015625 -360.19943237304688
v 548.82781982421875 4570.291015625 -190.970458984375
v -548.82781982421875 2889.7578125 -190.970458984375
v -548.82781982421875 2889.7578125 -360.19943237304688
v -548.82781982421875 4570.291015625 -190.970458984375
v -548.82781982421875 4570.291015625 -360.19943237304688
# 38 vertices

vn 0 0 -1
vn 1 0 0
vn 0 0 0
vn -1 0 0
vn 0 1 0
vn 0 -1 0
vn 0 0 1
vn -0.92387974262238 0.38268291950226 0
vn -0.70710706710815 0.70710653066635 0
vn -0.38268360495567 -0.92387944459915 0
vn -0.70710682868958 -0.70710670948029 0
vn 0.92387956380844 -0.38268342614174 0
vn 0.70710682868958 -0.70710676908493 0
vn 0.38268360495567 0.92387944459915 0
vn 0.70710682868958 0.70710670948029 0
vn -0.38268360495567 0.92387944459915 0
vn -0.9238795042038 -0.38268342614174 0
vn 0.38268342614174 -0.9238795042038 0
vn 0.9238795042038 0.38268342614174 0
# 19 normals

vt 0.14097195863724 0.89345872402191 0
vt 0.14097195863724 0.91845864057541 0
vt 0.16597193479538 0.91845864057541 0
vt 0.16597193479538 0.89345872402191 0
vt 0.51249998807907 0.48750007152557 0
vt 0.84407550096512 0.89122664928436 0
vt 0.84407550096512 0.91622656583786 0
vt 0.86907547712326 0.91622656583786 0
vt 0.86907547712326 0.89122664928436 0
vt 0.95567923784256 0.90015494823456 0
vt 0.95567923784256 0.92515486478806 0
vt 0.9806792140007 0.92515486478806 0
vt 0.77377659082413 0.89755952358246 0
vt 0.77377659082413 0.92255944013596 0
vt 0.79877656698227 0.92255944013596 0
vt 0.9806792140007 0.90015494823456 0
vt 0.79877656698227 0.89755952358246 0
# 17 texture coordinates

o roadsign
usemtl texture
f 1/1/1 9/2/1 10/3/1 3/4/1
f 3/1/2 10/2/2 5/3/2
f 19/6/4 20/7/4 21/8/4 22/9/4
f 7/1/4 8/2/4 2/3/4 9/4/4
f 2/1/5 8/2/5 6/3/5 4/4/5
f 7/1/6 1/2/6 3/3/6 5/4/6
f 16/10/1 36/11/1 21/11/1 20/10/1 38/11/1 25/11/1 24/10/1 33/11/1 13/16/1 12/10/1 32/11/1 17/10/1
f 10/1/2 4/2/2 6/3/2 5/4/2
f 5/1/7 6/2/7 8/3/7 7/4/7
f 9/1/4 1/2/4 7/3/4
f 9/13/7 30/14/7 15/15/7 18/13/7 29/14/7 10/13/7
f 10/13/7 29/14/7 11/14/7 14/13/7 28/14/7 4/17/7
f 4/13/7 28/14/7 23/14/7 26/13/7 27/14/7 2/17/7
f 2/13/7 27/14/7 19/14/7 22/13/7 30/14/7 9/17/7
f 15/6/6 16/7/6 17/8/6 18/9/6
f 11/6/2 12/7/2 13/8/2 14/9/2
f 23/6/5 24/7/5 25/8/5 26/9/5
f 19/6/8 37/7/9 38/8/9 20/9/8
f 15/6/10 35/7/11 36/8/11 16/9/10
f 11/6/12 31/7/13 32/8/13 12/9/12
f 23/6/14 34/7/15 33/8/15 24/9/14
f 11/13/7 29/14/7 18/15/7 31/17/7
f 14/13/7 34/14/7 23/15/7 28/17/7
f 15/13/7 30/14/7 22/15/7 35/17/7
f 19/13/7 27/14/7 26/15/7 37/17/7
f 37/6/9 26/7/16 25/8/16 38/9/9
f 35/6/11 22/7/17 21/8/17 36/9/11
f 31/6/13 18/7/18 17/8/18 32/9/13
f 34/6/15 14/7/19 13/8/19 33/9/15

