# WaveFront *.obj file (generated by CINEMA 4D)

v -1339.8587646484375 3513.08251953125 -228.75515747070312
v -1339.8587646484375 4205.6767578125 -228.75515747070312
v -955.692626953125 4212.27294921875 -228.75515747070312
v -841.96014404296875 4551.9736328125 -228.75515747070312
v -347.225830078125 4861.9921875 -228.75515747070312
v 342.7320556640625 4861.9921875 -228.75515747070312
v 734.24432373046875 4551.9736328125 -228.75515747070312
v 907.7369384765625 4205.6767578125 -228.75515747070312
v 1327.6160888671875 4205.6767578125 -228.75515747070312
v 1333.048828125 3506.486572265625 -228.75515747070312
v -1339.8587646484375 3513.08251953125 228.75515747070312
v -1339.8587646484375 4205.6767578125 228.75515747070312
v -955.692626953125 4212.27294921875 228.75515747070312
v -841.96014404296875 4551.9736328125 228.75515747070312
v -347.225830078125 4861.9921875 228.75515747070312
v 342.7320556640625 4861.9921875 228.75515747070312
v 734.24432373046875 4551.9736328125 228.75515747070312
v 907.7369384765625 4205.6767578125 228.75515747070312
v 1327.6160888671875 4205.6767578125 228.75515747070312
v 1333.048828125 3506.486572265625 228.75515747070312
v 255.53245544433594 3509.1455078125 -74.553955078125
v 255.53245544433594 3509.1455078125 74.553955078125
v -255.53245544433594 3510.40673828125 74.553955078125
v -1351.1424560546875 1364.75146484375 -228.75515747070312
v -1351.1424560546875 3404.63525390625 -228.75515747070312
v 1351.1424560546875 1364.75146484375 -228.75515747070312
v 1351.1424560546875 3404.63525390625 -228.75515747070312
v 1351.1424560546875 1364.75146484375 228.75515747070312
v 1351.1424560546875 3404.63525390625 228.75515747070312
v -1351.1424560546875 1364.75146484375 228.75515747070312
v -1351.1424560546875 3404.63525390625 228.75515747070312
v -255.53245544433594 3404.63525390625 -74.553955078125
v 255.53245544433594 3404.63525390625 -74.553955078125
v 255.53245544433594 3404.63525390625 74.553955078125
v -255.53245544433594 3404.63525390625 74.553955078125
v -255.53245544433594 3510.40673828125 -74.553955078125
v 1351.1424560546875 1801.394775390625 -187.91267395019531
v 1351.1424560546875 2967.991943359375 -187.91267395019531
v 1351.1424560546875 1801.394775390625 187.91267395019531
v 1351.1424560546875 2967.991943359375 187.91267395019531
v -1351.1424560546875 1801.394775390625 -187.91267395019531
v -1351.1424560546875 2967.991943359375 -187.91267395019531
v -1351.1424560546875 1801.394775390625 187.91267395019531
v -1351.1424560546875 2967.991943359375 187.91267395019531
v 1458.4022216796875 1801.394775390625 -187.91267395019531
v 1458.4022216796875 1801.394775390625 187.91267395019531
v 1458.4022216796875 2967.991943359375 187.91267395019531
v 1458.4022216796875 2967.991943359375 -187.91267395019531
v -1786.7685546875 -162.68800354003906 -228.75515747070312
v -1786.7685546875 4184.2705078125 -228.75515747070312
v -1434.39501953125 -162.68800354003906 -228.75515747070312
v -1434.39501953125 4184.2705078125 -228.75515747070312
v -1434.39501953125 -162.68800354003906 228.75515747070312
v -1434.39501953125 4184.2705078125 228.75515747070312
v -1786.7685546875 -162.68800354003906 228.75515747070312
v -1786.7685546875 4184.2705078125 228.75515747070312
v 1458.4022216796875 -162.68800354003906 -228.75515747070312
v 1458.4022216796875 4184.2705078125 -228.75515747070312
v 1810.7757568359375 -162.68800354003906 -228.75515747070312
v 1810.7757568359375 4184.2705078125 -228.75515747070312
v 1810.7757568359375 -162.68800354003906 228.75515747070312
v 1810.7757568359375 4184.2705078125 228.75515747070312
v 1458.4022216796875 -162.68800354003906 228.75515747070312
v 1458.4022216796875 4184.2705078125 228.75515747070312
v -1434.39501953125 1801.394775390625 187.91267395019531
v -1434.39501953125 1801.394775390625 -187.91267395019531
v -1434.39501953125 2967.991943359375 -187.91267395019531
v -1434.39501953125 2967.991943359375 187.91267395019531
# 68 vertices

vn -1 0 0
vn -0.01716809906065 0.99985259771347 0
vn -0.94826471805573 0.31748083233833 0
vn -0.53099572658539 0.84737449884415 0
vn 0 1 0
vn 0.62079071998596 0.78397631645203 0
vn 0.89407163858414 0.44792395830154 0
vn 0.99996984004974 0.00776989292353 0
vn -0.00246780179441 -0.99999696016312 -0.00000117844024
vn -0.00246781040914 -0.99999696016312 -0.00000117844024
vn -0.00246780179441 -0.99999696016312 0.00000117778677
vn -0.00246781040914 -0.99999696016312 0.00000117778677
vn 0 0 -1
vn 0 0 0
vn 0 0 1
vn 0 -1 0
vn 1 0 0
# 17 normals

vt 0.5812481045723 0.89309918880463 0
vt 0.5812481045723 0.91809910535812 0
vt 0.60624808073044 0.91809910535812 0
vt 0.60624808073044 0.89309918880463 0
vt 0.45456081628799 0.8910528421402 0
vt 0.45456081628799 0.9160527586937 0
vt 0.47956079244614 0.9160527586937 0
vt 0.47956079244614 0.8910528421402 0
vt 0.51818639039993 0.89161121845245 0
vt 0.51818639039993 0.91661113500595 0
vt 0.54318636655807 0.91661113500595 0
vt 0.54318636655807 0.89161121845245 0
vt 0.51249998807907 0.48750007152557 0
vt 0.14570313692093 0.89375007152557 0
vt 0.14570313692093 0.91874998807907 0
vt 0.17070311307907 0.91874998807907 0
vt 0.17070311307907 0.89375007152557 0
vt 0.20820313692093 0.89570319652557 0
vt 0.20820313692093 0.92070311307907 0
vt 0.23320311307907 0.92070311307907 0
vt 0.23320311307907 0.89570319652557 0
# 21 texture coordinates

o signboard01
usemtl texture
f 1/1/1 11/2/1 12/3/1 2/4/1
f 2/5/2 12/6/2 13/7/2 3/8/2
f 3/9/3 13/10/3 14/11/3 4/12/3
f 4/5/4 14/6/4 15/7/4 5/8/4
f 5/5/5 15/6/5 16/7/5 6/8/5
f 6/5/6 16/6/6 17/7/6 7/8/6
f 7/9/7 17/10/7 18/11/7 8/12/7
f 8/5/5 18/6/5 19/7/5 9/8/5
f 9/1/8 19/2/8 20/3/8 10/4/8
f 36/1/9 1/2/9 10/3/10 21/4/10
f 11/1/11 1/2/9 36/3/9 23/4/11
f 22/1/12 21/2/10 10/3/10 20/4/12
f 20/1/12 11/2/11 23/3/11 22/4/12
f 8/1/13 3/2/13 5/3/13 7/4/13
f 1/1/13 3/2/13 8/3/13 10/4/13
f 3/1/13 1/2/13 2/3/13
f 5/1/13 6/2/13 7/3/13
f 8/1/13 9/2/13 10/3/13
f 3/1/13 4/2/13 5/3/13
f 11/1/15 13/2/15 12/3/15
f 20/1/15 19/2/15 18/3/15
f 11/1/15 20/2/15 18/3/15 13/4/15
f 18/1/15 17/2/15 15/3/15 13/4/15
f 17/1/15 16/2/15 15/3/15
f 15/1/15 14/2/15 13/3/15
f 24/1/13 25/2/13 27/3/13 26/4/13
f 28/1/15 29/2/15 31/3/15 30/4/15
f 30/1/16 24/2/16 26/3/16 28/4/16
f 25/9/5 32/10/5 33/11/5 27/12/5
f 27/9/5 33/10/5 34/11/5 29/12/5
f 29/9/5 34/10/5 35/11/5 31/12/5
f 31/9/5 35/10/5 32/11/5 25/12/5
f 21/1/13 33/2/13 32/3/13 36/4/13
f 22/1/17 34/2/17 33/3/17 21/4/17
f 23/1/15 35/2/15 34/3/15 22/4/15
f 36/1/1 32/2/1 35/3/1 23/4/1
f 26/1/17 37/2/17 39/3/17 28/4/17
f 28/1/17 39/2/17 40/3/17 29/4/17
f 29/1/17 40/2/17 38/3/17 27/4/17
f 27/1/17 38/2/17 37/3/17 26/4/17
f 30/1/1 43/2/1 41/3/1 24/4/1
f 24/1/1 41/2/1 42/3/1 25/4/1
f 25/1/1 42/2/1 44/3/1 31/4/1
f 31/1/1 44/2/1 43/3/1 30/4/1
f 46/1/16 39/2/16 37/3/16 45/4/16
f 47/1/15 40/2/15 39/3/15 46/4/15
f 48/5/5 38/6/5 40/7/5 47/8/5
f 45/1/13 37/2/13 38/3/13 48/4/13
f 66/1/16 41/2/16 43/3/16 65/4/16
f 67/1/13 42/2/13 41/3/13 66/4/13
f 68/5/5 44/6/5 42/7/5 67/8/5
f 65/1/15 43/2/15 44/3/15 68/4/15
f 49/14/13 50/15/13 52/16/13 51/17/13
f 66/14/17 65/15/17 53/16/17 51/17/17
f 53/14/17 65/15/17 68/16/17 54/17/17
f 52/14/17 54/15/17 68/16/17 67/17/17
f 66/14/17 51/15/17 52/16/17 67/17/17
f 53/14/15 54/15/15 56/16/15 55/17/15
f 55/14/1 56/15/1 50/16/1 49/17/1
f 50/18/5 56/19/5 54/20/5 52/21/5
f 55/14/16 49/15/16 51/16/16 53/17/16
f 57/14/13 58/15/13 60/16/13 59/17/13
f 59/14/17 60/15/17 62/16/17 61/17/17
f 61/14/15 62/15/15 64/16/15 63/17/15
f 46/14/1 45/15/1 57/16/1 63/17/1
f 57/14/1 45/15/1 48/16/1 58/17/1
f 46/1/1 63/2/1 64/3/1 47/4/1
f 64/14/1 58/15/1 48/16/1 47/17/1
f 58/18/5 64/19/5 62/20/5 60/21/5
f 63/1/16 57/2/16 59/3/16 61/4/16

