# WaveFront *.obj file (generated by CINEMA 4D)

v -2547.82080078125 3645.719970703125 -2547.82080078125
v -726.94976806640625 14255.3837890625 -886.89111328125
v 2547.82080078125 3645.719970703125 -2547.82080078125
v 726.94976806640625 14255.3837890625 -886.89111328125
v 2547.82080078125 3645.719970703125 2547.82080078125
v 726.94976806640625 14255.3837890625 886.89111328125
v -2547.82080078125 3645.719970703125 2547.82080078125
v -726.94976806640625 14255.3837890625 886.89111328125
v -57.06538772583008 3645.719970703125 -652.2603759765625
v 652.2603759765625 3645.719970703125 -57.06538772583008
v 57.06538772583008 3645.719970703125 652.2603759765625
v -652.2603759765625 3645.719970703125 57.06538772583008
v -57.06538772583008 0 -652.2603759765625
v 652.2603759765625 0 -57.06538772583008
v 57.06538772583008 0 652.2603759765625
v -652.2603759765625 0 57.06538772583008
# 16 vertices

vn 0 0.15466500818729 -0.9879669547081
vn 0.98559021949768 0.16915075480938 0
vn 0 0.15466500818729 0.9879669547081
vn -0.98559021949768 0.16915075480938 0
vn 0 1 0
vn 0 -1 0
vn -0.64278757572174 0 0.76604443788528
vn 0.76604443788528 0 0.64278757572174
vn 0.64278763532639 0 -0.76604443788528
vn -0.76604443788528 0 -0.64278763532639
# 10 normals

vt 0.521877348423 0.89348304271698 0
vt 0.521877348423 0.91848295927048 0
vt 0.54687732458115 0.91848295927048 0
vt 0.54687732458115 0.89348304271698 0
vt 0.7008963227272 0.88983738422394 0
vt 0.7008963227272 0.91483730077744 0
vt 0.72589629888535 0.91483730077744 0
vt 0.72589629888535 0.88983738422394 0
# 8 texture coordinates

o tree02
usemtl texture
f 1/1/1 2/2/1 4/3/1 3/4/1
f 3/1/2 4/2/2 6/3/2 5/4/2
f 5/1/3 6/2/3 8/3/3 7/4/3
f 7/1/4 8/2/4 2/3/4 1/4/4
f 2/1/5 8/2/5 6/3/5 4/4/5
f 16/5/6 13/6/6 14/7/6 15/8/6
f 7/1/6 12/2/6 11/3/6 5/4/6
f 5/1/6 11/2/6 10/3/6 3/4/6
f 3/1/6 10/2/6 9/3/6 1/4/6
f 1/1/6 9/2/6 12/3/6 7/4/6
f 12/5/7 16/6/7 15/7/7 11/8/7
f 11/5/8 15/6/8 14/7/8 10/8/8
f 10/5/9 14/6/9 13/7/9 9/8/9
f 9/5/10 13/6/10 16/7/10 12/8/10

