# WaveFront *.obj file (generated by CINEMA 4D)

v -4213.220703125 2376.431884765625 2702.20947265625
v -4021.02783203125 3760.520263671875 2702.20947265625
v -3966.89501953125 2396.0263671875 2702.20947265625
v -3998.91455078125 2400.472412109375 2822.8544921875
v -4086.393310546875 2412.61962890625 2911.172607421875
v -4205.8916015625 2429.213134765625 2943.49951171875
v -4325.39013671875 2445.806640625 2911.172607421875
v -4412.869140625 2457.953857421875 2822.8544921875
v -4444.888671875 2462.39990234375 2702.20947265625
v -4412.869140625 2457.953857421875 2581.564453125
v -4325.39013671875 2445.806640625 2493.24609375
v -4205.8916015625 2429.213134765625 2460.91943359375
v -4086.393310546875 2412.61962890625 2493.24609375
v -3998.91455078125 2400.472412109375 2581.564453125
v -3771.91357421875 2515.9326171875 2702.20947265625
v -3827.373046875 2523.633544921875 2911.172607421875
v -3978.890869140625 2544.673095703125 3064.14453125
v -4185.8681640625 2573.413818359375 3120.135986328125
v -4392.845703125 2602.154541015625 3064.14453125
v -4544.36328125 2623.194091796875 2911.172607421875
v -4599.82275390625 2630.89501953125 2702.20947265625
v -4544.36328125 2623.194091796875 2493.24609375
v -4392.845703125 2602.154541015625 2340.2744140625
v -4185.8681640625 2573.413818359375 2284.282958984375
v -3978.890869140625 2544.673095703125 2340.2744140625
v -3827.373046875 2523.633544921875 2493.24609375
v -3789.498046875 3673.56005859375 2702.20947265625
v -3821.517333984375 3678.00634765625 2822.8544921875
v -3908.996337890625 3690.153564453125 2911.172607421875
v -4028.494873046875 3706.7470703125 2943.49951171875
v -4147.9931640625 3723.34033203125 2911.172607421875
v -4235.47216796875 3735.487548828125 2822.8544921875
v -4267.49169921875 3739.933837890625 2702.20947265625
v -4235.47216796875 3735.487548828125 2581.564453125
v -4147.9931640625 3723.34033203125 2493.24609375
v -4028.494873046875 3706.7470703125 2460.91943359375
v -3908.996337890625 3690.153564453125 2493.24609375
v -3821.517333984375 3678.00634765625 2581.564453125
v -3634.93994140625 3502.354248046875 2702.20947265625
v -3690.3994140625 3510.055419921875 2911.172607421875
v -3841.91748046875 3531.094970703125 3064.14453125
v -4048.894775390625 3559.835693359375 3120.135986328125
v -4255.8720703125 3588.576416015625 3064.14453125
v -4407.39013671875 3609.615966796875 2911.172607421875
v -4462.849609375 3617.31689453125 2702.20947265625
v -4407.39013671875 3609.615966796875 2493.24609375
v -4255.8720703125 3588.576416015625 2340.2744140625
v -4048.894775390625 3559.835693359375 2284.282958984375
v -3841.91748046875 3531.094970703125 2340.2744140625
v -3690.3994140625 3510.055419921875 2493.24609375
# 50 vertices

vn 0.43660342693329 -0.89965409040451 -0.00000000386214
vn 0.90238004922867 -0.43094107508659 -0.00000000422076
vn 0.78148406744003 -0.43094110488892 0.45119002461433
vn 0.37810963392258 -0.89965409040451 0.21830169856548
vn 0.45119005441666 -0.43094113469124 0.78148400783539
vn 0.21830171346664 -0.89965409040451 0.3781096637249
vn 0 -0.43094104528427 0.90238004922867
vn 0.00000000386214 -0.89965409040451 0.43660345673561
vn -0.45119002461433 -0.43094110488892 0.78148406744003
vn -0.21830169856548 -0.89965409040451 0.37810963392258
vn -0.78148400783539 -0.43094113469124 0.45119005441666
vn -0.37810963392258 -0.89965409040451 0.21830169856548
vn -0.90238004922867 -0.43094104528427 0
vn -0.43660339713097 -0.89965409040451 0.0000000028966
vn -0.78148406744003 -0.43094110488892 -0.45119002461433
vn -0.37810963392258 -0.89965409040451 -0.21830169856548
vn -0.45119005441666 -0.43094113469124 -0.78148400783539
vn -0.21830171346664 -0.89965409040451 -0.3781096637249
vn 0 -0.43094104528427 -0.90238004922867
vn -0.00000000386214 -0.89965409040451 -0.43660345673561
vn 0.45119002461433 -0.43094110488892 -0.78148406744003
vn 0.21830169856548 -0.89965409040451 -0.37810963392258
vn 0.78148400783539 -0.43094113469124 -0.45119005441666
vn 0.37810963392258 -0.89965409040451 -0.21830169856548
vn 0.90439891815186 0.42668798565865 -0.00000000842475
vn 0.78323239088058 0.42668798565865 0.45219942927361
vn 0.45219942927361 0.42668798565865 0.78323239088058
vn 0.00000000421238 0.42668798565865 0.90439891815186
vn -0.45219942927361 0.42668798565865 0.78323239088058
vn -0.78323239088058 0.42668798565865 0.45219942927361
vn -0.90439891815186 0.42668798565865 0.00000000842475
vn -0.78323239088058 0.42668798565865 -0.45219942927361
vn -0.45219942927361 0.42668798565865 -0.78323239088058
vn -0.00000000421238 0.42668798565865 -0.90439891815186
vn 0.45219942927361 0.42668798565865 -0.78323239088058
vn 0.78323239088058 0.42668798565865 -0.45219942927361
vn 0 -1 -0.00000000127381
vn 0 0 0
vn -0.38317140936852 0.89679402112961 -0.22122411429882
vn -0.44244828820229 0.89679402112961 0.00000000773058
vn 0.00000000127501 1 0.00000000095625
vn -0.22122411429882 0.89679402112961 -0.38317140936852
vn -0.00000000386529 0.89679402112961 -0.44244822859764
vn 0.22122411429882 0.89679402112961 -0.38317140936852
vn 0.38317140936852 0.89679402112961 -0.22122411429882
vn 0.44244825839996 0.89679402112961 -0.0000000086969
vn 0.38317143917084 0.89679402112961 0.22122414410114
vn 0.22122411429882 0.89679402112961 0.38317140936852
vn 0.00000000483161 0.89679402112961 0.44244825839996
vn -0.22122414410114 0.89679402112961 0.38317143917084
vn -0.38317140936852 0.89679402112961 0.22122411429882
# 51 normals

vt 0.31937924027443 0.68310546875 0
vt 0.31937924027443 0.70248508453369 0
vt 0.32601806521416 0.70248508453369 0
vt 0.32601806521416 0.68310546875 0
vt 0.33265683054924 0.70248508453369 0
vt 0.33265683054924 0.68310546875 0
vt 0.339295566082 0.70248508453369 0
vt 0.339295566082 0.68310546875 0
vt 0.34593433141708 0.70248508453369 0
vt 0.34593433141708 0.68310546875 0
vt 0.35257312655449 0.70248508453369 0
vt 0.35257312655449 0.68310546875 0
vt 0.35921195149422 0.70248508453369 0
vt 0.35921195149422 0.68310546875 0
vt 0.3658507168293 0.70248508453369 0
vt 0.3658507168293 0.68310546875 0
vt 0.37248951196671 0.70248508453369 0
vt 0.37248951196671 0.68310546875 0
vt 0.37912824749947 0.70248508453369 0
vt 0.37912824749947 0.68310546875 0
vt 0.38576704263687 0.70248508453369 0
vt 0.38576704263687 0.68310546875 0
vt 0.39240583777428 0.70248508453369 0
vt 0.39240583777428 0.68310546875 0
vt 0.39904460310936 0.70248508453369 0
vt 0.39904460310936 0.68310546875 0
vt 0.31937924027443 0.83505475521088 0
vt 0.32601806521416 0.83505475521088 0
vt 0.33265683054924 0.83505475521088 0
vt 0.339295566082 0.83505475521088 0
vt 0.34593433141708 0.83505475521088 0
vt 0.35257312655449 0.83505475521088 0
vt 0.35921195149422 0.83505475521088 0
vt 0.3658507168293 0.83505475521088 0
vt 0.37248951196671 0.83505475521088 0
vt 0.37912824749947 0.83505475521088 0
vt 0.38576704263687 0.83505475521088 0
vt 0.39240583777428 0.83505475521088 0
vt 0.39904460310936 0.83505475521088 0
vt 0.3658507168293 0.67601203918457 0
vt 1 0.14231884479523 0
vt 0.3658507168293 0.85479879379272 0
vt 0.35921195149422 0.85479879379272 0
vt 0.35921195149422 0.86202561855316 0
vt 0.37248951196671 0.67601203918457 0
vt 0.37248951196671 0.85479879379272 0
vt 0.3658507168293 0.86202561855316 0
vt 0.37912824749947 0.67601203918457 0
vt 0.37912824749947 0.85479879379272 0
vt 0.37248951196671 0.86202561855316 0
vt 0.38576704263687 0.67601203918457 0
vt 0.38576704263687 0.85479879379272 0
vt 0.37912824749947 0.86202561855316 0
vt 0.39240583777428 0.67601203918457 0
vt 0.39240583777428 0.85479879379272 0
vt 0.38576704263687 0.86202561855316 0
vt 0.39904460310936 0.67601203918457 0
vt 0.39904460310936 0.85479879379272 0
vt 0.39240583777428 0.86202561855316 0
vt 0.31937924027443 0.85479879379272 0
vt 0.32601806521416 0.85479879379272 0
vt 0.33265683054924 0.85479879379272 0
vt 0.339295566082 0.85479879379272 0
vt 0.34593433141708 0.85479879379272 0
vt 0.35257312655449 0.85479879379272 0
vt 0.32601806521416 0.67601203918457 0
vt 1 0.85500597953796 0
vt 0.31937924027443 0.86202561855316 0
vt 0.33265683054924 0.67601203918457 0
vt 0.32601806521416 0.86202561855316 0
vt 0.339295566082 0.67601203918457 0
vt 0.33265683054924 0.86202561855316 0
vt 0.34593433141708 0.67601203918457 0
vt 0.339295566082 0.86202561855316 0
vt 0.35257312655449 0.67601203918457 0
vt 0.34593433141708 0.86202561855316 0
vt 0.35921195149422 0.67601203918457 0
vt 0.35257312655449 0.86202561855316 0
# 78 texture coordinates

o light
usemtl default
f 3/1/1 15/2/2 16/3/3 4/4/4
f 4/4/4 16/3/3 17/5/5 5/6/6
f 5/6/6 17/5/5 18/7/7 6/8/8
f 6/8/8 18/7/7 19/9/9 7/10/10
f 7/10/10 19/9/9 20/11/11 8/12/12
f 8/12/12 20/11/11 21/13/13 9/14/14
f 9/14/14 21/13/13 22/15/15 10/16/16
f 10/16/16 22/15/15 23/17/17 11/18/18
f 11/18/18 23/17/17 24/19/19 12/20/20
f 12/20/20 24/19/19 25/21/21 13/22/22
f 13/22/22 25/21/21 26/23/23 14/24/24
f 14/24/24 26/23/23 15/25/2 3/26/1
f 15/2/2 39/27/25 40/28/26 16/3/3
f 16/3/3 40/28/26 41/29/27 17/5/5
f 17/5/5 41/29/27 42/30/28 18/7/7
f 18/7/7 42/30/28 43/31/29 19/9/9
f 19/9/9 43/31/29 44/32/30 20/11/11
f 20/11/11 44/32/30 45/33/31 21/13/13
f 21/13/13 45/33/31 46/34/32 22/15/15
f 22/15/15 46/34/32 47/35/33 23/17/17
f 23/17/17 47/35/33 48/36/34 24/19/19
f 24/19/19 48/36/34 49/37/35 25/21/21
f 25/21/21 49/37/35 50/38/36 26/23/23
f 26/23/23 50/38/36 39/39/25 15/25/2
f 1/40/37 9/14/14 10/16/16
f 34/42/39 33/43/40 2/44/41
f 1/45/37 10/16/16 11/18/18
f 35/46/42 34/42/39 2/47/41
f 1/48/37 11/18/18 12/20/20
f 36/49/43 35/46/42 2/50/41
f 1/51/37 12/20/20 13/22/22
f 37/52/44 36/49/43 2/53/41
f 1/54/37 13/22/22 14/24/24
f 38/55/45 37/52/44 2/56/41
f 1/57/37 14/24/24 3/26/1
f 27/58/46 38/55/45 2/59/41
f 39/27/25 27/60/46 28/61/47 40/28/26
f 40/28/26 28/61/47 29/62/48 41/29/27
f 41/29/27 29/62/48 30/63/49 42/30/28
f 42/30/28 30/63/49 31/64/50 43/31/29
f 43/31/29 31/64/50 32/65/51 44/32/30
f 44/32/30 32/65/51 33/43/40 45/33/31
f 45/33/31 33/43/40 34/42/39 46/34/32
f 46/34/32 34/42/39 35/46/42 47/35/33
f 47/35/33 35/46/42 36/49/43 48/36/34
f 48/36/34 36/49/43 37/52/44 49/37/35
f 49/37/35 37/52/44 38/55/45 50/38/36
f 50/38/36 38/55/45 27/58/46 39/39/25
f 1/66/37 3/1/1 4/4/4
f 28/61/47 27/60/46 2/68/41
f 1/69/37 4/4/4 5/6/6
f 29/62/48 28/61/47 2/70/41
f 1/71/37 5/6/6 6/8/8
f 30/63/49 29/62/48 2/72/41
f 1/73/37 6/8/8 7/10/10
f 31/64/50 30/63/49 2/74/41
f 1/75/37 7/10/10 8/12/12
f 32/65/51 31/64/50 2/76/41
f 1/77/37 8/12/12 9/14/14
f 33/43/40 32/65/51 2/78/41

