# WaveFront *.obj file (generated by CINEMA 4D)

v -1858.600830078125 3672.365966796875 4549.85986328125
v 3252.965576171875 7222.90234375 1453.4869384765625
v -3214.797119140625 0 1453.4869384765625
v -3214.797119140625 7222.90234375 1453.4869384765625
v -3214.797119140625 0 -2280.9892578125
v -3214.797119140625 7222.90234375 -2280.9892578125
v 3252.965576171875 0 -2280.9892578125
v 3252.965576171875 7222.90234375 -2280.9892578125
v 3252.965576171875 5983.119140625 1453.4869384765625
v -3214.797119140625 5983.119140625 1453.4869384765625
v -2547.379150390625 0 4549.85986328125
v -1858.600830078125 0.00000000000049 4549.85986328125
v -1858.600830078125 4002.135986328125 4029.6201171875
v -3214.797119140625 5635.09814453125 1453.4869384765625
v -2547.379150390625 0.00000000000018 4034.380126953125
v -2547.379150390625 3672.365966796875 4549.85986328125
v 3252.965576171875 3823.199951171875 4860.9384765625
v -3214.797119140625 3823.199951171875 4860.9384765625
v 3252.965576171875 3475.17919921875 4860.9384765625
v -3214.797119140625 3475.17919921875 4860.9384765625
v -2547.379150390625 4002.135986328125 4029.6201171875
v -1858.600830078125 0.00000000000018 4034.380126953125
v 937.1212158203125 3672.365966796875 4549.85986328125
v 937.1212158203125 0 1453.4869384765625
v 937.1212158203125 5635.09814453125 1453.4869384765625
v 3252.965576171875 0 4549.85986328125
v 3252.965576171875 3672.365966796875 4549.85986328125
v 937.1212158203125 0 4549.85986328125
v 937.1212158203125 3672.3798828125 4549.837890625
# 29 vertices

vn 0.00000002896234 -0.84460985660553 -0.53538227081299
vn 0.00000000690168 -0.84460979700088 -0.53538239002228
vn 0.00000000989716 -0.84460979700088 -0.53538239002228
vn 0.0000000223037 -0.84460985660553 -0.53538227081299
vn 1 0 0
vn -0.0000000141166 -0.84460985660553 -0.53538227081299
vn 0 0 0
vn 0 -1 0
vn 0 -1 0
vn 0 1 0
vn 0 0 1
vn -1 0 0
vn 0 0 -1
vn -0.00000006570773 -0.84460985660553 -0.53538233041763
vn -0.00000007995178 -0.84460979700088 -0.53538233041763
vn -0.00000007995179 -0.84460997581482 -0.5353821516037
vn 0 0.84460985660553 0.53538233041763
vn 0 -0.00118926342111 -0.99999928474426
vn 0 -1 0
vn 0 -1 0
vn 0 0 1
vn 0 0.84460991621017 0.53538221120834
vn -0 -0.84460991621017 -0.53538221120834
# 23 normals

vt 0.75948661565781 0.88895088434219 0
vt 0.75948661565781 0.92801338434219 0
vt 0.79854911565781 0.92801338434219 0
vt 0.79854911565781 0.88895088434219 0
vt 0.33592838048935 0.00005066394806 0
vt 0.51171052455902 0.27889323234558 0
vt 0.65748953819275 0.17132174968719 0
vt 0.65747976303101 0.00002145767212 0
vt 1 0 0
vt 0.33593815565109 0.33725965023041 0
vt 0.51170980930328 0.33720314502716 0
vt 0.00721915950999 0.75670552253723 0
vt 0.00721915950999 0.79751193523407 0
vt 0.04802555590868 0.79751193523407 0
vt 0.04802555590868 0.75670552253723 0
vt 0.08676636219025 0.71853232383728 0
vt 0.08676636219025 0.8518967628479 0
vt 0.31774109601974 0.8518967628479 0
vt 0.31774109601974 0.71853232383728 0
vt 0.65822172164917 0.64939552545547 0
vt 0.65834379196167 0.70582467317581 0
vt 0.99820709228516 0.70560765266418 0
vt 0.99803417921066 0.6493467092514 0
vt 0.48158892989159 0.60061776638031 0
vt 0.65817409753799 0.67451059818268 0
vt 0.6582362651825 0.3369277715683 0
vt 0.48158892989159 0.33725965023041 0
vt -0.00002701196354 0.33676731586456 0
vt -0.00000515196007 0.00000190734863 0
vt 0.67213523387909 0.17834329605103 0
vt 0.67213523387909 0.16214179992676 0
vt 0.48158892989159 0.61688250303268 0
vt 0.48158892989159 0.67482405900955 0
vt 0.32053512334824 0.51593828201294 0
vt 0.32053512334824 0.49967324733734 0
vt 0.6582362651825 0.60061776638031 0
vt 0.99803400039673 0.60059827566147 0
vt 0.65821528434753 0.5088791847229 0
vt 0.77896785736084 0.50888890028 0
vt 0.77896785736084 0.3369277715683 0
vt 0.01063546538353 0.8215057849884 0
vt 0.01063546538353 0.85813015699387 0
vt 0.04725986719131 0.85813015699387 0
vt 0.04725986719131 0.8215057849884 0
vt 0.33523830771446 0.33725965023041 0
vt 0.33523830771446 0.50888890028 0
vt 0.99796217679977 0.63111454248428 0
vt 0.99796217679977 0.64939552545547 0
vt 0.65822172164917 0.63111454248428 0
vt 0.77896785736084 0.60061776638031 0
vt 0.99609357118607 0.3369277715683 0
# 51 texture coordinates

o shop02
usemtl shop02
f 1/1/1 13/2/2 29/3/3 19/4/4
f 8/10/5 2/11/5 9/6/5 27/7/5 26/8/5 7/5/5
f 29/2/3 25/1/22 23/1/23 27/2/23 19/1/4
f 26/12/8 28/13/8 24/12/9 3/13/20 5/14/20 7/15/9
f 6/16/10 4/17/10 2/18/10 8/19/10
f 9/20/11 2/21/11 4/22/11 10/23/11
f 10/32/12 4/33/12 6/25/12 5/26/12 3/27/12 14/24/7
f 6/28/13 8/10/13 7/5/13 5/29/13
f 14/1/14 13/2/2 21/3/15
f 17/30/5 19/31/5 27/7/5
f 18/34/12 10/32/12 14/24/12 20/35/12
f 17/30/5 27/7/5 9/6/5
f 1/1/1 19/2/4 20/3/16 16/4/16
f 10/20/17 18/36/17 17/37/17 9/23/17
f 26/26/11 27/38/11 23/39/11 28/40/11
f 13/41/18 22/42/18 15/43/18 21/44/18
f 20/1/16 14/2/14 21/3/15 16/4/16
f 16/41/11 11/42/11 12/43/11 1/44/11
f 11/41/19 15/42/19 22/43/19 12/44/19
f 21/41/12 15/42/12 11/43/12 16/44/12
f 24/27/12 28/45/12 23/46/12 25/24/12
f 19/47/11 17/48/11 18/20/11 20/49/11
f 1/41/5 12/42/5 22/43/5 13/44/5
f 13/1/2 14/2/14 25/3/6 29/4/3
f 25/50/21 14/37/21 3/51/21 24/40/21

